<svg width="33" height="33" viewBox="0 0 33 33" fill="none" xmlns="http://www.w3.org/2000/svg">
<g clip-path="url(#clip0_538_1706)">
<path d="M30.497 11.9867L16.4725 0.119648C16.284 -0.0398827 16.0078 -0.0398827 15.8192 0.119648L1.79429 11.9867C1.6323 12.1238 1.57313 12.3475 1.64611 12.5467C1.7191 12.7459 1.90872 12.8784 2.12092 12.8784H6.03489C6.48118 16.1361 8.36016 19.0212 11.1284 20.6602C11.136 20.6647 11.1439 20.6679 11.1516 20.672C11.1918 20.7032 11.2317 20.7348 11.2734 20.7647L11.3245 20.8012V22.812C11.0666 22.8209 10.8129 22.9236 10.6205 23.1161L9.95345 23.7832L5.25079 24.9589C4.06292 25.2558 3.23341 26.3183 3.23341 27.5427V30.7128C3.23341 31.5865 3.9442 32.2973 4.81793 32.2973H27.4732C28.347 32.2973 29.0577 31.5865 29.0577 30.7128V27.5427C29.0577 26.3183 28.2282 25.2558 27.0404 24.9589L22.3376 23.7832L21.6706 23.116C21.4781 22.9236 21.2245 22.8208 20.9666 22.812V20.8011L21.0177 20.7646C21.0558 20.7374 21.0922 20.7084 21.1291 20.6798C21.13 20.6793 21.1308 20.679 21.1317 20.6786C23.9179 19.0423 25.8083 16.1503 26.2564 12.8783H30.1703C30.3825 12.8783 30.5722 12.7459 30.6451 12.5466C30.7182 12.3475 30.659 12.1238 30.497 11.9867ZM6.48736 11.867H3.50144L14.1879 2.82486L8.84469 11.867H6.48888C6.48837 11.867 6.48787 11.867 6.48736 11.867ZM7.05591 12.8784H9.70637V17.7195C9.70637 17.9185 9.72384 18.1155 9.75494 18.3093C8.32806 16.8611 7.37005 14.9581 7.05591 12.8784ZM15.6399 2.35579V11.867H10.0195L15.6399 2.35579ZM11.3358 23.8312C11.3471 23.8199 11.3649 23.8181 11.3783 23.827L15.2896 26.4345L13.5672 27.8125C13.5644 27.8147 13.5563 27.8215 13.5419 27.8196C13.5278 27.8178 13.5214 27.8092 13.5192 27.8063L10.8798 24.2871L11.3358 23.8312ZM16.1456 24.7454C16.4248 24.7454 16.6513 24.5191 16.6513 24.2397V22.5878H17.6118C18.1702 22.5878 18.7054 22.4163 19.1598 22.0917L19.9552 21.5235V23.2499L16.1456 25.7896L12.336 23.2499V21.5235L13.1314 22.0917C13.5858 22.4163 14.1211 22.5878 14.6795 22.5878H15.6399V24.2397C15.6399 24.5191 15.8663 24.7454 16.1456 24.7454ZM7.54869 31.2858H4.81793C4.5019 31.2858 4.24478 31.0287 4.24478 30.7127V27.5426C4.24478 27.2555 4.31852 26.9828 4.44992 26.7446L7.22282 29.5175C7.43294 29.7276 7.54869 30.007 7.54869 30.3042V31.2858ZM28.0464 27.5426V30.7127C28.0464 31.0287 27.7893 31.2858 27.4732 31.2858H24.7425V30.3042C24.7425 30.007 24.8582 29.7276 25.0683 29.5175L27.8412 26.7446C27.9726 26.9828 28.0464 27.2555 28.0464 27.5426ZM22.2823 24.8117L26.7951 25.9399C26.9034 25.9671 27.006 26.0055 27.1037 26.0519L24.3532 28.8023C23.952 29.2035 23.7311 29.7368 23.7311 30.3041V31.2858H8.56013V30.3041C8.56013 29.7368 8.33922 29.2034 7.93803 28.8022L5.18752 26.0518C5.28523 26.0054 5.38793 25.967 5.49611 25.94L10.009 24.8118L12.7101 28.4133C12.8813 28.6416 13.1315 28.7871 13.4145 28.823C13.4595 28.8287 13.5043 28.8316 13.5488 28.8316C13.7847 28.8316 14.0116 28.7523 14.199 28.6024L15.6399 27.4496V29.6339C15.6399 29.9131 15.8663 30.1396 16.1456 30.1396C16.4248 30.1396 16.6513 29.9132 16.6513 29.6339V27.4495L18.0922 28.6023C18.2797 28.7522 18.5066 28.8314 18.7424 28.8314C18.787 28.8314 18.8317 28.8286 18.8767 28.8229C19.1597 28.787 19.4099 28.6415 19.5811 28.4131L22.2823 24.8117ZM21.4115 24.2872L18.772 27.8064C18.7699 27.8093 18.7634 27.8179 18.7493 27.8197C18.7352 27.8216 18.7268 27.8148 18.724 27.8126L17.0016 26.4346L20.9129 23.8271C20.9263 23.8182 20.9441 23.8201 20.9554 23.8313L21.4115 24.2872ZM21.5734 17.7196C21.5734 18.5996 21.1459 19.4303 20.4299 19.9417L18.572 21.2688C18.2901 21.4701 17.9581 21.5764 17.6118 21.5764H14.6795C14.3331 21.5764 14.0011 21.47 13.7193 21.2688L11.8614 19.9417C11.1453 19.4302 10.7179 18.5996 10.7179 17.7196V12.8785H21.5735V17.7196H21.5734ZM16.6513 11.867V2.35523L22.2718 11.867H16.6513ZM22.5362 18.31C22.5673 18.116 22.5849 17.9188 22.5849 17.7195V12.8785H23.1574C23.1577 12.8785 23.1581 12.8785 23.1584 12.8785C23.1588 12.8785 23.1591 12.8785 23.1595 12.8785H25.2353C24.9212 14.9596 23.9634 16.8619 22.5362 18.31ZM25.8085 11.867C25.8053 11.867 25.8021 11.867 25.7989 11.867H23.4466L18.1033 2.82442L28.7898 11.867H25.8085Z" fill="#492E1C" stroke="#492E1C" stroke-width="0.00291176"/>
</g>
<defs>
<clipPath id="clip0_538_1706">
<rect width="32.2974" height="32.2974" rx="10" fill="white"/>
</clipPath>
</defs>
</svg>
